Coordinates
version=1
nRows=10
nColumns=46
inDegrees=yes

Units are S.I. units (second, meters, Newtons, ...)
Angles are in degrees.

endheader
time	pelvis_tilt	pelvis_list	pelvis_rotation	pelvis_tx	pelvis_ty	pelvis_tz	bb_angle	bb_tx	bb_ty	bb_tz	hip_flexion_r	hip_adduction_r	hip_rotation_r	knee_angle_r	knee_angle_r_beta	ankle_angle_r	subtalar_angle_r	mtp_angle_r	crank_angle_r	hip_flexion_l	hip_adduction_l	hip_rotation_l	knee_angle_l	knee_angle_l_beta	ankle_angle_l	subtalar_angle_l	mtp_angle_l	crank_angle_l	lumbar_extension	lumbar_bending	lumbar_rotation	arm_flex_r	arm_add_r	arm_rot_r	elbow_flex_r	pro_sup_r	wrist_flex_r	wrist_dev_r	arm_flex_l	arm_add_l	arm_rot_l	elbow_flex_l	pro_sup_l	wrist_flex_l	wrist_dev_l
      5.00500000	    -15.00894853	      2.68547882	      5.07783820	      0.08087373	      1.11285503	     -0.25770929	      0.00000000	      0.50000000	      0.00000000	      0.25000000	     47.83019684	     -6.83004275	      1.21685017	     36.20572236	      0.63190906	    -12.19319960	    -15.68189230	      0.00000000	      0.00000000	     78.53928200	      1.06960191	      5.64277612	    109.79872786	      1.91634932	     -8.91644011	     -9.77421666	      0.00000000	      0.00000000	    -63.67100994	     -2.69352178	     -8.72453595	     89.14674557	    -18.44905044	     29.79253115	     55.74245588	     32.53015025	      0.00000000	      0.00000000	     89.43131220	    -21.37019709	     30.92489902	     65.82069149	     39.26000523	      0.00000000	      0.00000000
      5.01000000	    -15.27765294	      3.10471936	      5.48134199	      0.08086131	      1.11283068	     -0.25655307	      0.00000000	      0.50000000	      0.00000000	      0.25000000	     46.75384867	     -7.47716065	      0.81320830	     34.57081357	      0.60337452	    -13.10834813	    -14.79465006	      0.00000000	      0.00000000	     80.07938378	      1.36114606	      5.34141381	    110.80245567	      1.93386767	     -8.36054779	     -9.40611541	      0.00000000	      0.00000000	    -63.46975004	     -2.95457141	     -9.25211673	     89.10458599	    -18.63722231	     29.83442294	     55.47934158	     32.51687627	      0.00000000	      0.00000000	     89.45622796	    -21.10333458	     31.02935498	     65.87912812	     39.23969689	      0.00000000	      0.00000000
      5.01500000	    -15.43974628	      3.43094770	      5.93047075	      0.08078673	      1.11297235	     -0.25559783	      0.00000000	      0.50000000	      0.00000000	      0.25000000	     45.59398563	     -8.12636819	      0.17404894	     33.06001672	      0.57700614	    -14.00121824	    -13.73989195	      0.00000000	      0.00000000	     81.51006005	      1.69170882	      5.18593986	    111.71943647	      1.94987200	     -7.64113700	     -8.63931506	      0.00000000	      0.00000000	    -63.35532637	     -3.06584765	     -9.63450490	     89.09233107	    -18.86601784	     30.01648904	     54.97882003	     32.50866861	      0.00000000	      0.00000000	     89.47022920	    -20.77767625	     31.19487828	     65.89175488	     39.16890565	      0.00000000	      0.00000000
      5.02000000	    -15.70033654	      3.78181991	      6.17931104	      0.08056594	      1.11272721	     -0.25445693	      0.00000000	      0.50000000	      0.00000000	      0.25000000	     44.67955403	     -8.63667310	     -0.23513373	     31.79945405	      0.55500517	    -14.66424981	    -12.77815670	      0.00000000	      0.00000000	     83.04918279	      1.76790105	      4.85315790	    112.54215381	      1.96423113	     -7.12778252	     -8.41779930	      0.00000000	      0.00000000	    -63.13441414	     -3.37375669	    -10.03700590	     89.04295274	    -19.04012691	     30.05741527	     54.78704041	     32.50433369	      0.00000000	      0.00000000	     89.49928976	    -20.55302090	     31.27750235	     65.95312528	     39.14897637	      0.00000000	      0.00000000
      5.02500000	    -15.94720035	      4.10639262	      6.50608364	      0.08037783	      1.11256947	     -0.25342161	      0.00000000	      0.50000000	      0.00000000	      0.25000000	     43.79107996	     -9.20382993	     -0.74662514	     30.67123261	      0.53531399	    -15.32220207	    -11.64443381	      0.00000000	      0.00000000	     84.53275329	      1.90592656	      4.56310102	    113.20446815	      1.97579070	     -6.70328455	     -7.97406415	      0.00000000	      0.00000000	    -62.93759659	     -3.56427285	    -10.32403544	     89.00671604	    -19.26307731	     30.11361275	     54.53894403	     32.49776310	      0.00000000	      0.00000000	     89.50866848	    -20.30899235	     31.39973341	     66.04317489	     39.12846210	      0.00000000	      0.00000000
      5.03000000	    -15.99859154	      4.33107022	      6.93738217	      0.08007238	      1.11248983	     -0.25277141	      0.00000000	      0.50000000	      0.00000000	      0.25000000	     42.82085262	     -9.83362434	     -1.65701897	     29.91495722	      0.52211450	    -15.44990765	    -10.02327133	      0.00000000	      0.00000000	     85.81462397	      2.20583414	      4.45753496	    113.78869302	      1.98598734	     -6.06696676	     -7.07475168	      0.00000000	      0.00000000	    -62.89533245	     -3.56184243	    -10.41270616	     89.01483270	    -19.69004082	     30.43562928	     53.96048821	     32.53269938	      0.00000000	      0.00000000	     89.52543794	    -19.88159848	     31.68866283	     66.05694537	     38.99474195	      0.00000000	      0.00000000
      5.03500000	    -16.18149387	      4.61795682	      7.20663255	      0.07970131	      1.11234378	     -0.25169596	      0.00000000	      0.50000000	      0.00000000	      0.25000000	     42.03372542	    -10.27495748	     -2.04144389	     29.17036559	      0.50911892	    -15.91773177	     -9.26069043	      0.00000000	      0.00000000	     87.16613338	      2.37462112	      4.20217266	    114.18706128	      1.99294018	     -5.81233741	     -6.93139693	      0.00000000	      0.00000000	    -62.78340912	     -3.74303240	    -10.64025384	     88.99282457	    -19.86194115	     30.50866915	     53.81590249	     32.54715301	      0.00000000	      0.00000000	     89.54167908	    -19.65850342	     31.73864025	     66.13587225	     38.95855401	      0.00000000	      0.00000000
      5.04000000	    -16.36777952	      4.83736271	      7.53364562	      0.07937135	      1.11216392	     -0.25087161	      0.00000000	      0.50000000	      0.00000000	      0.25000000	     41.36477651	    -10.71393249	     -2.56250170	     28.69881449	      0.50088880	    -16.28009577	     -8.48167619	      0.00000000	      0.00000000	     88.47885737	      2.59918670	      3.98449486	    114.45053431	      1.99753865	     -5.60146420	     -6.71534246	      0.00000000	      0.00000000	    -62.65961039	     -3.81290790	    -10.79278443	     88.97336053	    -20.11956750	     30.57418765	     53.60361919	     32.55719032	      0.00000000	      0.00000000	     89.55306964	    -19.40139610	     31.79175202	     66.25731442	     38.91712454	      0.00000000	      0.00000000
      5.04500000	    -16.45060069	      4.99762905	      7.91514194	      0.07896945	      1.11213466	     -0.25035335	      0.00000000	      0.50000000	      0.00000000	      0.25000000	     40.70175773	    -11.16022780	     -3.25385533	     28.54501240	      0.49820445	    -16.27921349	     -7.59423621	      0.00000000	      0.00000000	     89.63363189	      2.93349233	      3.80811621	    114.57455104	      1.99970315	     -5.45383048	     -6.56992075	      0.00000000	      0.00000000	    -62.62843737	     -3.76991225	    -10.79509105	     88.98482202	    -20.57279819	     30.74966557	     53.29976620	     32.63376651	      0.00000000	      0.00000000	     89.56613921	    -18.95127932	     31.85756337	     66.36185704	     38.75426712	      0.00000000	      0.00000000
      5.05000000	    -16.45975630	      5.15663124	      8.01157135	      0.07845356	      1.11211388	     -0.24937694	      0.00000000	      0.50000000	      0.00000000	      0.25000000	     40.11378140	    -11.28754729	     -3.36458403	     28.56971295	      0.49863556	    -16.40876859	     -7.52957449	      0.00000000	      0.00000000	     90.63466646	      2.92837316	      3.57226631	    114.60533898	      2.00024051	     -5.32355287	     -6.58580573	      0.00000000	      0.00000000	    -62.67455747	     -3.87868076	    -10.83223159	     88.99775662	    -20.62592469	     30.75078936	     53.26334650	     32.63761742	      0.00000000	      0.00000000	     89.59342437	    -18.88694462	     31.83556744	     66.41717011	     38.74406901	      0.00000000	      0.00000000
